<svg width="16" height="16" viewBox="0 0 16 16" fill="none" xmlns="http://www.w3.org/2000/svg">
<path d="M0 14V2C0 0.89543 0.895425 0 2 0H14C15.1046 0 16 0.89543 16 2V14C16 15.1046 15.1046 16 14 16H2C0.895425 16 0 15.1046 0 14Z" fill="#5137E8" fill-opacity="0.5"/>
<path d="M0 10V2C0 0.89543 0.895425 0 2 0H14C15.1046 0 16 0.89543 16 2V10C16 11.1046 15.1046 12 14 12H2C0.895425 12 0 11.1046 0 10Z" fill="#5137E8" fill-opacity="0.6"/>
<path d="M0 6V2C0 0.89543 0.895425 0 2 0H14C15.1046 0 16 0.89543 16 2V6C16 7.10458 15.1046 8 14 8H2C0.895425 8 0 7.10458 0 6Z" fill="#5137E8"/>
</svg>
