<svg width="32" height="32" viewBox="0 0 32 32" fill="none" xmlns="http://www.w3.org/2000/svg">
<g clip-path="url(#clip0_142_1981)">
<path d="M0 28V4C0 1.79086 1.79085 0 4 0H28C30.2091 0 32 1.79086 32 4V28C32 30.2092 30.2091 32 28 32H4C1.79085 32 0 30.2092 0 28Z" fill="#5137E8" fill-opacity="0.5"/>
<path d="M0 20V4C0 1.79086 1.79085 0 4 0H28C30.2091 0 32 1.79086 32 4V20C32 22.2092 30.2091 24 28 24H4C1.79085 24 0 22.2092 0 20Z" fill="#5137E8" fill-opacity="0.6"/>
<path d="M0 12V4C0 1.79086 1.79085 0 4 0H28C30.2091 0 32 1.79086 32 4V12C32 14.2092 30.2091 16 28 16H4C1.79085 16 0 14.2092 0 12Z" fill="#5137E8"/>
</g>
<defs>
<clipPath id="clip0_142_1981">
<rect width="32" height="32" fill="white" transform="matrix(-1 0 0 1 32 0)"/>
</clipPath>
</defs>
</svg>
